<svg xmlns="http://www.w3.org/2000/svg" xmlns:xlink="http://www.w3.org/1999/xlink" width="500" zoomAndPan="magnify" viewBox="0 0 375 374.999991" height="500" preserveAspectRatio="xMidYMid meet" version="1.0"><defs><filter x="0%" y="0%" width="100%" height="100%" id="02e9e1c111"><feColorMatrix values="0 0 0 0 1 0 0 0 0 1 0 0 0 0 1 0 0 0 1 0" color-interpolation-filters="sRGB"/></filter><clipPath id="a62a8255fe"><path d="M 24.832031 47.808594 L 247.886719 47.808594 L 247.886719 226.691406 L 24.832031 226.691406 Z M 24.832031 47.808594 " clip-rule="nonzero"/></clipPath><clipPath id="b1202cddce"><path d="M 9 10 L 283.519531 10 L 283.519531 284.160156 L 9 284.160156 Z M 9 10 " clip-rule="nonzero"/></clipPath><mask id="cad7edbeb5"><g filter="url(#02e9e1c111)"><rect x="-128.5" width="540" fill="#000000" y="-136.499998" height="539.999987" fill-opacity="0.37"/></g></mask><clipPath id="f7481164f0"><path d="M 25.707031 47.6875 L 248.765625 47.6875 L 248.765625 226.566406 L 25.707031 226.566406 Z M 25.707031 47.6875 " clip-rule="nonzero"/></clipPath><clipPath id="4bdaa8b3ba"><rect x="0" width="275" y="0" height="275"/></clipPath><clipPath id="e908a7607d"><rect x="0" width="284" y="0" height="285"/></clipPath></defs><g transform="matrix(1, 0, 0, 1, 46, 54)"><g clip-path="url(#e908a7607d)"><g clip-path="url(#a62a8255fe)"><path fill="#ffffff" d="M 69.496094 47.808594 L 69.496094 92.472656 L 47.132812 70.171875 L 24.832031 47.808594 Z M 24.832031 92.472656 L 47.132812 114.835938 L 69.496094 137.136719 L 69.496094 92.472656 Z M 114.15625 137.136719 L 114.15625 92.472656 L 69.496094 92.472656 L 91.792969 114.835938 Z M 69.496094 137.136719 L 91.792969 159.496094 L 114.15625 181.796875 L 114.15625 137.136719 Z M 136.457031 159.496094 L 158.820312 181.796875 L 158.820312 137.136719 L 114.15625 137.136719 Z M 136.457031 204.160156 L 158.820312 226.460938 L 158.820312 181.796875 L 114.15625 181.796875 Z M 114.15625 47.808594 L 136.457031 70.171875 L 158.820312 92.472656 L 158.820312 47.808594 Z M 114.15625 92.472656 L 136.457031 114.835938 L 158.820312 137.136719 L 158.820312 92.472656 Z M 203.480469 137.136719 L 203.480469 92.472656 L 158.820312 92.472656 L 181.121094 114.835938 Z M 158.820312 137.136719 L 181.121094 159.496094 L 203.480469 181.796875 L 203.480469 137.136719 Z M 203.480469 137.136719 L 225.78125 159.496094 L 248.144531 181.796875 L 248.144531 137.136719 Z M 225.78125 204.160156 L 248.144531 226.460938 L 248.144531 181.796875 L 203.480469 181.796875 Z M 225.78125 204.160156 " fill-opacity="1" fill-rule="nonzero"/></g><g clip-path="url(#b1202cddce)"><g mask="url(#cad7edbeb5)"><g transform="matrix(1, 0, 0, 1, 9, 10)"><g clip-path="url(#4bdaa8b3ba)"><g clip-path="url(#f7481164f0)"><path fill="#ffffff" d="M 70.371094 47.6875 L 70.371094 92.351562 L 48.007812 70.050781 L 25.707031 47.6875 Z M 25.707031 92.351562 L 48.007812 114.710938 L 70.371094 137.011719 L 70.371094 92.351562 Z M 115.03125 137.011719 L 115.03125 92.351562 L 70.371094 92.351562 L 92.667969 114.710938 Z M 70.371094 137.011719 L 92.667969 159.375 L 115.03125 181.675781 L 115.03125 137.011719 Z M 137.332031 159.375 L 159.695312 181.675781 L 159.695312 137.011719 L 115.03125 137.011719 Z M 137.332031 204.039062 L 159.695312 226.339844 L 159.695312 181.675781 L 115.03125 181.675781 Z M 115.03125 47.6875 L 137.332031 70.050781 L 159.695312 92.351562 L 159.695312 47.6875 Z M 115.03125 92.351562 L 137.332031 114.710938 L 159.695312 137.011719 L 159.695312 92.351562 Z M 204.355469 137.011719 L 204.355469 92.351562 L 159.695312 92.351562 L 181.996094 114.710938 Z M 159.695312 137.011719 L 181.996094 159.375 L 204.355469 181.675781 L 204.355469 137.011719 Z M 204.355469 137.011719 L 226.65625 159.375 L 249.019531 181.675781 L 249.019531 137.011719 Z M 226.65625 204.039062 L 249.019531 226.339844 L 249.019531 181.675781 L 204.355469 181.675781 Z M 226.65625 204.039062 " fill-opacity="1" fill-rule="nonzero"/></g></g></g></g></g></g></g></svg>